<?xml version="1.0" encoding="UTF-8" standalone="no"?>
<svg width="419.453mm" height="67.0278mm"
 xmlns="http://www.w3.org/2000/svg" xmlns:xlink="http://www.w3.org/1999/xlink"  version="1.2" baseProfile="tiny">
<title>Qt SVG Document</title>
<desc>Generated with Qt</desc>
<defs>
</defs>
<g fill="none" stroke="black" stroke-width="1" fill-rule="evenodd" stroke-linecap="square" stroke-linejoin="bevel" >

<g fill="none" stroke="#000000" stroke-opacity="1" stroke-width="1" stroke-linecap="square" stroke-linejoin="bevel" transform="matrix(1,0,0,1,0,0)"
font-family="Ubuntu" font-size="11" font-weight="400" font-style="normal" 
>
</g>

<g fill="none" stroke="#000000" stroke-opacity="1" stroke-width="1" stroke-linecap="square" stroke-linejoin="bevel" transform="matrix(1,0,0,1,0,0)"
font-family="Ubuntu" font-size="11" font-weight="400" font-style="normal" 
>
</g>

<g fill="none" stroke="#000000" stroke-opacity="1" stroke-width="1" stroke-linecap="square" stroke-linejoin="bevel" transform="matrix(2,0,0,2,-0.0032,190)"
font-family="Ubuntu" font-size="11" font-weight="400" font-style="normal" 
>
</g>

<g fill="#ffffff" fill-opacity="1" stroke="none" transform="matrix(2,0,0,2,-0.0032,190)"
font-family="Ubuntu" font-size="11" font-weight="400" font-style="normal" 
>
<rect x="0.0016" y="-95" width="594.264" height="95"/>
</g>

<g fill="none" stroke="#000000" stroke-opacity="1" stroke-width="1" stroke-linecap="square" stroke-linejoin="bevel" transform="matrix(2,0,0,2,-0.0032,190)"
font-family="Ubuntu" font-size="11" font-weight="400" font-style="normal" 
>
</g>

<g fill="none" stroke="#000000" stroke-opacity="1" stroke-width="1" stroke-linecap="square" stroke-linejoin="bevel" transform="matrix(2,0,0,2,-0.0032,190)"
font-family="Ubuntu" font-size="11" font-weight="400" font-style="normal" 
>
</g>

<g fill="none" stroke="#000000" stroke-opacity="1" stroke-width="1" stroke-linecap="square" stroke-linejoin="bevel" transform="matrix(2,0,0,2,-0.0032,190)"
font-family="Ubuntu" font-size="11" font-weight="400" font-style="normal" 
>
</g>

<g fill="none" stroke="#000000" stroke-opacity="1" stroke-width="1" stroke-linecap="square" stroke-linejoin="bevel" transform="matrix(2,0,0,2,-0.0032,190)"
font-family="Ubuntu" font-size="11" font-weight="400" font-style="normal" 
>
</g>

<g fill="none" stroke="#000000" stroke-opacity="1" stroke-width="1" stroke-linecap="square" stroke-linejoin="round" transform="matrix(2,0,0,2,-0.0032,190)"
font-family="Ubuntu" font-size="11" font-weight="400" font-style="normal" 
>
<ellipse cx="65.644" cy="-72" rx="65.1424" ry="17.5"/>
</g>

<g fill="none" stroke="#000000" stroke-opacity="1" stroke-width="1" stroke-linecap="square" stroke-linejoin="bevel" transform="matrix(2,0,0,2,-0.0032,190)"
font-family="Ubuntu" font-size="11" font-weight="400" font-style="normal" 
>
</g>

<g fill="none" stroke="#000000" stroke-opacity="1" stroke-width="1" stroke-linecap="square" stroke-linejoin="bevel" transform="matrix(2,0,0,2,49.2535,33)"
font-family="Ubuntu" font-size="11" font-weight="400" font-style="normal" 
>
</g>

<g fill="none" stroke="#000000" stroke-opacity="1" stroke-width="1" stroke-linecap="square" stroke-linejoin="bevel" transform="matrix(2,0,0,2,49.2535,33)"
font-family="sans" font-size="11" font-weight="100" font-style="normal" 
>
</g>

<g fill="#000000" fill-opacity="1" stroke="#000000" stroke-opacity="1" stroke-width="1" stroke-linecap="square" stroke-linejoin="round" transform="matrix(2,0,0,2,49.2535,33)"
font-family="sans" font-size="11" font-weight="100" font-style="normal" 
>
<path vector-effect="none" fill-rule="nonzero" d="M2.96875,1.98438 L3.53125,1.98438 L0.734375,11.0156 L0.171875,11.0156 L2.96875,1.98438 M8.67188,9.09375 C9.08854,8.67708 9.29688,7.97917 9.29688,7 C9.29688,6.02083 9.08854,5.32292 8.67188,4.90625 C8.25521,4.48958 7.81771,4.28125 7.35938,4.28125 C6.91146,4.28125 6.47917,4.48958 6.0625,4.90625 C5.65625,5.32292 5.45312,6.02083 5.45312,7 C5.45312,7.97917 5.65625,8.67708 6.0625,9.09375 C6.47917,9.51042 6.91146,9.71875 7.35938,9.71875 C7.81771,9.71875 8.25521,9.51042 8.67188,9.09375 M5.4375,5.35938 C5.66667,4.83854 5.91146,4.47917 6.17188,4.28125 C6.57812,3.98958 6.96354,3.84375 7.32812,3.84375 C8.03646,3.84375 8.6276,4.13281 9.10156,4.71094 C9.57552,5.28906 9.8125,6.05208 9.8125,7 C9.8125,7.94792 9.57552,8.71094 9.10156,9.28906 C8.6276,9.86719 8.03646,10.1562 7.32812,10.1562 C6.96354,10.1562 6.57812,10.0052 6.17188,9.70312 C5.91146,9.51562 5.66667,9.16146 5.4375,8.64062 L5.4375,10 L4.95312,10 L4.95312,1.64062 L5.4375,1.64062 L5.4375,5.35938 M14.3281,6.60938 C13.526,6.60938 12.9505,6.75 12.6016,7.03125 C12.2526,7.3125 12.0781,7.72396 12.0781,8.26562 C12.0781,8.79688 12.224,9.17448 12.5156,9.39844 C12.8073,9.6224 13.151,9.73438 13.5469,9.73438 C14.2969,9.73438 14.8385,9.41667 15.1719,8.78125 C15.5052,8.13542 15.6719,7.53125 15.6719,6.96875 L15.6719,6.60938 L14.3281,6.60938 M16.1719,6.5625 L16.1719,10 L15.6719,10 L15.6719,8.35938 C15.401,9.16146 15.0365,9.67188 14.5781,9.89062 C14.224,10.0677 13.8646,10.1562 13.5,10.1562 C12.9062,10.1562 12.4375,9.99479 12.0938,9.67188 C11.75,9.34896 11.5781,8.8776 11.5781,8.25781 C11.5781,7.63802 11.8021,7.14062 12.25,6.76562 C12.6979,6.39062 13.4271,6.20312 14.4375,6.20312 L15.6719,6.20312 L15.6719,6.10938 C15.6719,5.57812 15.5156,5.14062 15.2031,4.79688 C14.9115,4.45312 14.4167,4.28125 13.7188,4.28125 C13.375,4.28125 13.026,4.34375 12.6719,4.46875 C12.4427,4.55208 12.1406,4.71875 11.7656,4.96875 L11.7656,4.4375 C12.0885,4.23958 12.3906,4.09896 12.6719,4.01562 C13.0677,3.90104 13.4479,3.84375 13.8125,3.84375 C14.5312,3.84375 15.1198,4.05729 15.5781,4.48438 C15.974,4.84896 16.1719,5.54167 16.1719,6.5625 M22.0625,4.15625 L22.0625,4.70312 C21.7083,4.50521 21.4896,4.39583 21.4062,4.375 C21.1562,4.32292 20.8438,4.29167 20.4688,4.28125 C19.9062,4.28125 19.4635,4.39062 19.1406,4.60938 C18.8906,4.79688 18.7656,5.11458 18.7656,5.5625 C18.7656,5.875 18.8854,6.11458 19.125,6.28125 C19.3646,6.46875 19.7135,6.61458 20.1719,6.71875 L20.5156,6.78125 C21.0885,6.90625 21.5208,7.08333 21.8125,7.3125 C22.1562,7.58333 22.3333,7.92708 22.3438,8.34375 C22.3438,8.90625 22.1771,9.34896 21.8438,9.67188 C21.4896,9.99479 20.9115,10.1562 20.1094,10.1562 C19.6719,10.1562 19.3385,10.125 19.1094,10.0625 C18.8281,9.98958 18.5365,9.89583 18.2344,9.78125 L18.2344,9.15625 C18.6719,9.40625 18.9531,9.55208 19.0781,9.59375 C19.4323,9.6875 19.7865,9.73438 20.1406,9.73438 C20.7135,9.73438 21.1406,9.61458 21.4219,9.375 C21.7031,9.125 21.8438,8.80729 21.8438,8.42188 C21.8438,8.08854 21.75,7.84896 21.5625,7.70312 C21.2917,7.48438 20.8646,7.30729 20.2812,7.17188 L19.9375,7.09375 C19.4271,6.96875 19.0417,6.80208 18.7812,6.59375 C18.4479,6.32292 18.2812,5.99479 18.2812,5.60938 C18.2812,4.98438 18.4818,4.53385 18.8828,4.25781 C19.2839,3.98177 19.776,3.84375 20.3594,3.84375 C20.8594,3.84375 21.2031,3.86979 21.3906,3.92188 C21.6198,3.98438 21.8438,4.0625 22.0625,4.15625 M29.0625,6.75 L29.0625,7.0625 L24.5,7.0625 C24.5,8.02083 24.6875,8.69792 25.0625,9.09375 C25.4792,9.52083 26.0938,9.73438 26.9062,9.73438 C27.125,9.73438 27.4115,9.6875 27.7656,9.59375 C28.1198,9.5 28.474,9.35938 28.8281,9.17188 L28.8281,9.6875 C28.474,9.84375 28.112,9.96094 27.7422,10.0391 C27.3724,10.1172 27.0781,10.1562 26.8594,10.1562 C25.9323,10.1562 25.2344,9.90625 24.7656,9.40625 C24.2552,8.875 24,8.09375 24,7.0625 C24,5.98958 24.2292,5.1875 24.6875,4.65625 C25.1667,4.11458 25.8333,3.84375 26.6875,3.84375 C27.4688,3.84375 28.0625,4.10417 28.4688,4.625 C28.8646,5.16667 29.0625,5.875 29.0625,6.75 M28.5625,6.64062 C28.5625,5.79688 28.3698,5.18229 27.9844,4.79688 C27.6719,4.45312 27.2396,4.28125 26.6875,4.28125 C26.0938,4.28125 25.5938,4.45833 25.1875,4.8125 C24.8125,5.14583 24.5885,5.75521 24.5156,6.64062 L28.5625,6.64062 M35.5,12.1719 L35.5,12.5938 L29.7812,12.5938 L29.7812,12.1719 L35.5,12.1719 M36.625,3.98438 L37.125,3.98438 L37.125,10 L36.625,10 L36.625,3.98438 M36.625,1.64062 L37.125,1.64062 L37.125,2.3125 L36.625,2.3125 L36.625,1.64062 M44.0156,5.29688 C44.2031,4.80729 44.4948,4.44271 44.8906,4.20312 C45.276,3.96354 45.7292,3.84375 46.25,3.84375 C46.7708,3.84375 47.1875,4.02604 47.5,4.39062 C47.8229,4.75521 47.9844,5.41667 47.9844,6.375 L47.9844,10 L47.5,10 L47.5,6.40625 C47.5,5.57292 47.3854,5.01042 47.1562,4.71875 C46.9271,4.42708 46.6198,4.28125 46.2344,4.28125 C45.6823,4.28125 45.1979,4.44792 44.7812,4.78125 C44.3125,5.15625 44.0781,5.76042 44.0781,6.59375 L44.0781,10 L43.5938,10 L43.5938,6.40625 C43.5938,5.60417 43.4818,5.04948 43.2578,4.74219 C43.0339,4.4349 42.724,4.28125 42.3281,4.28125 C41.776,4.28125 41.2917,4.45312 40.875,4.79688 C40.4062,5.16146 40.1719,5.76042 40.1719,6.59375 L40.1719,10 L39.6875,10 L39.6875,3.98438 L40.1719,3.98438 L40.1719,5.10938 C40.349,4.71354 40.625,4.40104 41,4.17188 C41.3646,3.95312 41.8177,3.84375 42.3594,3.84375 C42.7135,3.84375 43.0521,3.95833 43.375,4.1875 C43.625,4.375 43.8385,4.74479 44.0156,5.29688 M50.3281,7.60938 L50.3281,3.98438 L50.8125,3.98438 L50.8125,7.57812 C50.8125,8.35938 50.9375,8.90885 51.1875,9.22656 C51.4375,9.54427 51.8073,9.70312 52.2969,9.70312 C52.8698,9.70312 53.3594,9.53125 53.7656,9.1875 C54.1719,8.84375 54.375,8.24479 54.375,7.39062 L54.375,3.98438 L54.8594,3.98438 L54.8594,10 L54.375,10 L54.375,8.875 C54.1979,9.23958 53.9635,9.51562 53.6719,9.70312 C53.2552,9.99479 52.7917,10.1406 52.2812,10.1406 C51.6875,10.1406 51.2135,9.9375 50.8594,9.53125 C50.5052,9.13542 50.3281,8.49479 50.3281,7.60938 M61.7188,12.1719 L61.7188,12.5938 L56,12.5938 L56,12.1719 L61.7188,12.1719 M62.8594,1.64062 L63.3438,1.64062 L63.3438,10 L62.8594,10 L62.8594,1.64062 M65.8906,3.98438 L66.3906,3.98438 L66.3906,10 L65.8906,10 L65.8906,3.98438 M65.8906,1.64062 L66.3906,1.64062 L66.3906,2.3125 L65.8906,2.3125 L65.8906,1.64062 M73.5,6.375 L73.5,10 L73,10 L73,6.40625 C73,5.625 72.875,5.07552 72.625,4.75781 C72.375,4.4401 72.0052,4.28125 71.5156,4.28125 C70.9427,4.28125 70.4583,4.45312 70.0625,4.79688 C69.6458,5.14062 69.4375,5.73958 69.4375,6.59375 L69.4375,10 L68.9531,10 L68.9531,3.98438 L69.4375,3.98438 L69.4375,5.10938 C69.6146,4.74479 69.849,4.46875 70.1406,4.28125 C70.5573,3.98958 71.0208,3.84375 71.5312,3.84375 C72.1354,3.84375 72.6146,4.04688 72.9688,4.45312 C73.3229,4.84896 73.5,5.48958 73.5,6.375 M76.4219,1.64062 L76.9219,1.64062 L76.9219,6.71875 L79.9062,3.98438 L80.5781,3.98438 L77.4688,6.82812 L80.6875,10 L80.0469,10 L76.9219,6.92188 L76.9219,10 L76.4219,10 L76.4219,1.64062"/>
</g>

<g fill="none" stroke="#000000" stroke-opacity="1" stroke-width="1" stroke-linecap="square" stroke-linejoin="bevel" transform="matrix(2,0,0,2,49.2535,33)"
font-family="sans" font-size="11" font-weight="100" font-style="normal" 
>
</g>

<g fill="none" stroke="#000000" stroke-opacity="1" stroke-width="1" stroke-linecap="square" stroke-linejoin="bevel" transform="matrix(2,0,0,2,49.2535,33)"
font-family="Ubuntu" font-size="11" font-weight="400" font-style="normal" 
>
</g>

<g fill="none" stroke="#000000" stroke-opacity="1" stroke-width="1" stroke-linecap="square" stroke-linejoin="bevel" transform="matrix(2,0,0,2,-0.0032,190)"
font-family="Ubuntu" font-size="11" font-weight="400" font-style="normal" 
>
</g>

<g fill="none" stroke="#000000" stroke-opacity="1" stroke-width="1" stroke-linecap="square" stroke-linejoin="bevel" transform="matrix(2,0,0,2,-0.0032,190)"
font-family="Ubuntu" font-size="11" font-weight="400" font-style="normal" 
>
</g>

<g fill="none" stroke="#000000" stroke-opacity="1" stroke-width="1" stroke-linecap="square" stroke-linejoin="bevel" transform="matrix(2,0,0,2,-0.0032,190)"
font-family="Ubuntu" font-size="11" font-weight="400" font-style="normal" 
>
</g>

<g fill="none" stroke="#000000" stroke-opacity="1" stroke-width="1" stroke-linecap="square" stroke-linejoin="round" transform="matrix(2,0,0,2,-0.0032,190)"
font-family="Ubuntu" font-size="11" font-weight="400" font-style="normal" 
>
<ellipse cx="227.88" cy="-45" rx="67.0936" ry="17.5"/>
</g>

<g fill="none" stroke="#000000" stroke-opacity="1" stroke-width="1" stroke-linecap="square" stroke-linejoin="bevel" transform="matrix(2,0,0,2,-0.0032,190)"
font-family="Ubuntu" font-size="11" font-weight="400" font-style="normal" 
>
</g>

<g fill="none" stroke="#000000" stroke-opacity="1" stroke-width="1" stroke-linecap="square" stroke-linejoin="bevel" transform="matrix(2,0,0,2,368.663,87)"
font-family="Ubuntu" font-size="11" font-weight="400" font-style="normal" 
>
</g>

<g fill="none" stroke="#000000" stroke-opacity="1" stroke-width="1" stroke-linecap="square" stroke-linejoin="bevel" transform="matrix(2,0,0,2,368.663,87)"
font-family="sans" font-size="11" font-weight="100" font-style="normal" 
>
</g>

<g fill="#000000" fill-opacity="1" stroke="#000000" stroke-opacity="1" stroke-width="1" stroke-linecap="square" stroke-linejoin="round" transform="matrix(2,0,0,2,368.663,87)"
font-family="sans" font-size="11" font-weight="100" font-style="normal" 
>
<path vector-effect="none" fill-rule="nonzero" d="M2.96875,1.98438 L3.53125,1.98438 L0.734375,11.0156 L0.171875,11.0156 L2.96875,1.98438 M8.21875,4.40625 C8.13542,4.36458 8.02604,4.33333 7.89062,4.3125 C7.76562,4.29167 7.61458,4.28125 7.4375,4.28125 C6.82292,4.28125 6.31771,4.50521 5.92188,4.95312 C5.59896,5.31771 5.4375,5.94271 5.4375,6.82812 L5.4375,10 L4.95312,10 L4.95312,3.98438 L5.4375,3.98438 L5.4375,5.10938 C5.60417,4.78646 5.83333,4.51562 6.125,4.29688 C6.52083,3.99479 6.98958,3.84375 7.53125,3.84375 C7.67708,3.84375 7.80208,3.84896 7.90625,3.85938 C8.01042,3.85938 8.11458,3.86979 8.21875,3.89062 L8.21875,4.40625 M13.0469,5.01562 C12.6927,4.52604 12.2083,4.28125 11.5938,4.28125 C10.9792,4.28125 10.4948,4.52604 10.1406,5.01562 C9.78646,5.49479 9.60938,6.15104 9.60938,6.98438 C9.60938,7.83854 9.78646,8.51042 10.1406,9 C10.4948,9.48958 10.9792,9.73438 11.5938,9.73438 C12.2083,9.73438 12.6927,9.48958 13.0469,9 C13.401,8.5 13.5781,7.82812 13.5781,6.98438 C13.5781,6.16146 13.401,5.50521 13.0469,5.01562 M11.5938,3.84375 C12.3542,3.84375 12.9583,4.13021 13.4062,4.70312 C13.8542,5.27604 14.0781,6.03646 14.0781,6.98438 C14.0781,7.97396 13.8542,8.75521 13.4062,9.32812 C12.9583,9.90104 12.3542,10.1875 11.5938,10.1875 C10.8125,10.1875 10.1979,9.90104 9.75,9.32812 C9.3125,8.75521 9.09375,7.97396 9.09375,6.98438 C9.09375,6.02604 9.31771,5.26302 9.76562,4.69531 C10.2135,4.1276 10.8229,3.84375 11.5938,3.84375 M19.9062,9.09375 C20.3229,8.67708 20.5312,7.97917 20.5312,7 C20.5312,6.02083 20.3229,5.32292 19.9062,4.90625 C19.4896,4.48958 19.0521,4.28125 18.5938,4.28125 C18.1458,4.28125 17.7135,4.48958 17.2969,4.90625 C16.8906,5.32292 16.6875,6.02083 16.6875,7 C16.6875,7.97917 16.8906,8.67708 17.2969,9.09375 C17.7135,9.51042 18.1458,9.71875 18.5938,9.71875 C19.0521,9.71875 19.4896,9.51042 19.9062,9.09375 M16.6719,5.35938 C16.901,4.83854 17.1458,4.47917 17.4062,4.28125 C17.8125,3.98958 18.1979,3.84375 18.5625,3.84375 C19.2708,3.84375 19.862,4.13281 20.3359,4.71094 C20.8099,5.28906 21.0469,6.05208 21.0469,7 C21.0469,7.94792 20.8099,8.71094 20.3359,9.28906 C19.862,9.86719 19.2708,10.1562 18.5625,10.1562 C18.1979,10.1562 17.8125,10.0052 17.4062,9.70312 C17.1458,9.51562 16.901,9.16146 16.6719,8.64062 L16.6719,10 L16.1875,10 L16.1875,1.64062 L16.6719,1.64062 L16.6719,5.35938 M26.7344,5.01562 C26.3802,4.52604 25.8958,4.28125 25.2812,4.28125 C24.6667,4.28125 24.1823,4.52604 23.8281,5.01562 C23.474,5.49479 23.2969,6.15104 23.2969,6.98438 C23.2969,7.83854 23.474,8.51042 23.8281,9 C24.1823,9.48958 24.6667,9.73438 25.2812,9.73438 C25.8958,9.73438 26.3802,9.48958 26.7344,9 C27.0885,8.5 27.2656,7.82812 27.2656,6.98438 C27.2656,6.16146 27.0885,5.50521 26.7344,5.01562 M25.2812,3.84375 C26.0417,3.84375 26.6458,4.13021 27.0938,4.70312 C27.5417,5.27604 27.7656,6.03646 27.7656,6.98438 C27.7656,7.97396 27.5417,8.75521 27.0938,9.32812 C26.6458,9.90104 26.0417,10.1875 25.2812,10.1875 C24.5,10.1875 23.8854,9.90104 23.4375,9.32812 C23,8.75521 22.7812,7.97396 22.7812,6.98438 C22.7812,6.02604 23.0052,5.26302 23.4531,4.69531 C23.901,4.1276 24.5104,3.84375 25.2812,3.84375 M30.3906,2.28125 L30.3906,3.98438 L32.4219,3.98438 L32.4219,4.40625 L30.3906,4.40625 L30.3906,8.01562 C30.3906,8.47396 30.4479,8.79688 30.5625,8.98438 C30.8125,9.38021 31.1719,9.57812 31.6406,9.57812 L32.4219,9.57812 L32.4219,10 L31.6562,10 C31.1667,10 30.75,9.85677 30.4062,9.57031 C30.0625,9.28385 29.8906,8.76562 29.8906,8.01562 L29.8906,4.40625 L29.1719,4.40625 L29.1719,3.98438 L29.8906,3.98438 L29.8906,2.28125 L30.3906,2.28125 M38.5469,12.1719 L38.5469,12.5938 L32.8281,12.5938 L32.8281,12.1719 L38.5469,12.1719 M40.1719,8.64062 L40.1719,12.2812 L39.6875,12.2812 L39.6875,3.98438 L40.1719,3.98438 L40.1719,5.35938 C40.401,4.83854 40.6458,4.47917 40.9062,4.28125 C41.3125,3.98958 41.6979,3.84375 42.0625,3.84375 C42.7708,3.84375 43.362,4.13281 43.8359,4.71094 C44.3099,5.28906 44.5469,6.05208 44.5469,7 C44.5469,7.94792 44.3099,8.71094 43.8359,9.28906 C43.362,9.86719 42.7708,10.1562 42.0625,10.1562 C41.6979,10.1562 41.3125,10.0052 40.9062,9.70312 C40.6458,9.51562 40.401,9.16146 40.1719,8.64062 M43.4062,9.09375 C43.8229,8.67708 44.0312,7.97917 44.0312,7 C44.0312,6.02083 43.8229,5.32292 43.4062,4.90625 C42.9896,4.48958 42.5521,4.28125 42.0938,4.28125 C41.6458,4.28125 41.2135,4.48958 40.7969,4.90625 C40.3906,5.32292 40.1875,6.02083 40.1875,7 C40.1875,7.97917 40.3906,8.67708 40.7969,9.09375 C41.2135,9.51042 41.6458,9.71875 42.0938,9.71875 C42.5521,9.71875 42.9896,9.51042 43.4062,9.09375 M50.2344,5.01562 C49.8802,4.52604 49.3958,4.28125 48.7812,4.28125 C48.1667,4.28125 47.6823,4.52604 47.3281,5.01562 C46.974,5.49479 46.7969,6.15104 46.7969,6.98438 C46.7969,7.83854 46.974,8.51042 47.3281,9 C47.6823,9.48958 48.1667,9.73438 48.7812,9.73438 C49.3958,9.73438 49.8802,9.48958 50.2344,9 C50.5885,8.5 50.7656,7.82812 50.7656,6.98438 C50.7656,6.16146 50.5885,5.50521 50.2344,5.01562 M48.7812,3.84375 C49.5417,3.84375 50.1458,4.13021 50.5938,4.70312 C51.0417,5.27604 51.2656,6.03646 51.2656,6.98438 C51.2656,7.97396 51.0417,8.75521 50.5938,9.32812 C50.1458,9.90104 49.5417,10.1875 48.7812,10.1875 C48,10.1875 47.3854,9.90104 46.9375,9.32812 C46.5,8.75521 46.2812,7.97396 46.2812,6.98438 C46.2812,6.02604 46.5052,5.26302 46.9531,4.69531 C47.401,4.1276 48.0104,3.84375 48.7812,3.84375 M56.7812,4.15625 L56.7812,4.70312 C56.4271,4.50521 56.2083,4.39583 56.125,4.375 C55.875,4.32292 55.5625,4.29167 55.1875,4.28125 C54.625,4.28125 54.1823,4.39062 53.8594,4.60938 C53.6094,4.79688 53.4844,5.11458 53.4844,5.5625 C53.4844,5.875 53.6042,6.11458 53.8438,6.28125 C54.0833,6.46875 54.4323,6.61458 54.8906,6.71875 L55.2344,6.78125 C55.8073,6.90625 56.2396,7.08333 56.5312,7.3125 C56.875,7.58333 57.0521,7.92708 57.0625,8.34375 C57.0625,8.90625 56.8958,9.34896 56.5625,9.67188 C56.2083,9.99479 55.6302,10.1562 54.8281,10.1562 C54.3906,10.1562 54.0573,10.125 53.8281,10.0625 C53.5469,9.98958 53.2552,9.89583 52.9531,9.78125 L52.9531,9.15625 C53.3906,9.40625 53.6719,9.55208 53.7969,9.59375 C54.151,9.6875 54.5052,9.73438 54.8594,9.73438 C55.4323,9.73438 55.8594,9.61458 56.1406,9.375 C56.4219,9.125 56.5625,8.80729 56.5625,8.42188 C56.5625,8.08854 56.4688,7.84896 56.2812,7.70312 C56.0104,7.48438 55.5833,7.30729 55,7.17188 L54.6562,7.09375 C54.1458,6.96875 53.7604,6.80208 53.5,6.59375 C53.1667,6.32292 53,5.99479 53,5.60938 C53,4.98438 53.2005,4.53385 53.6016,4.25781 C54.0026,3.98177 54.4948,3.84375 55.0781,3.84375 C55.5781,3.84375 55.9219,3.86979 56.1094,3.92188 C56.3385,3.98438 56.5625,4.0625 56.7812,4.15625 M63.7812,6.75 L63.7812,7.0625 L59.2188,7.0625 C59.2188,8.02083 59.4062,8.69792 59.7812,9.09375 C60.1979,9.52083 60.8125,9.73438 61.625,9.73438 C61.8438,9.73438 62.1302,9.6875 62.4844,9.59375 C62.8385,9.5 63.1927,9.35938 63.5469,9.17188 L63.5469,9.6875 C63.1927,9.84375 62.8307,9.96094 62.4609,10.0391 C62.0911,10.1172 61.7969,10.1562 61.5781,10.1562 C60.651,10.1562 59.9531,9.90625 59.4844,9.40625 C58.974,8.875 58.7188,8.09375 58.7188,7.0625 C58.7188,5.98958 58.9479,5.1875 59.4062,4.65625 C59.8854,4.11458 60.5521,3.84375 61.4062,3.84375 C62.1875,3.84375 62.7812,4.10417 63.1875,4.625 C63.5833,5.16667 63.7812,5.875 63.7812,6.75 M63.2812,6.64062 C63.2812,5.79688 63.0885,5.18229 62.7031,4.79688 C62.3906,4.45312 61.9583,4.28125 61.4062,4.28125 C60.8125,4.28125 60.3125,4.45833 59.9062,4.8125 C59.5312,5.14583 59.3073,5.75521 59.2344,6.64062 L63.2812,6.64062 M70.2188,12.1719 L70.2188,12.5938 L64.5,12.5938 L64.5,12.1719 L70.2188,12.1719 M76.0469,6.75 L76.0469,7.0625 L71.4844,7.0625 C71.4844,8.02083 71.6719,8.69792 72.0469,9.09375 C72.4635,9.52083 73.0781,9.73438 73.8906,9.73438 C74.1094,9.73438 74.3958,9.6875 74.75,9.59375 C75.1042,9.5 75.4583,9.35938 75.8125,9.17188 L75.8125,9.6875 C75.4583,9.84375 75.0964,9.96094 74.7266,10.0391 C74.3568,10.1172 74.0625,10.1562 73.8438,10.1562 C72.9167,10.1562 72.2188,9.90625 71.75,9.40625 C71.2396,8.875 70.9844,8.09375 70.9844,7.0625 C70.9844,5.98958 71.2135,5.1875 71.6719,4.65625 C72.151,4.11458 72.8177,3.84375 73.6719,3.84375 C74.4531,3.84375 75.0469,4.10417 75.4531,4.625 C75.849,5.16667 76.0469,5.875 76.0469,6.75 M75.5469,6.64062 C75.5469,5.79688 75.3542,5.18229 74.9688,4.79688 C74.6562,4.45312 74.224,4.28125 73.6719,4.28125 C73.0781,4.28125 72.5781,4.45833 72.1719,4.8125 C71.7969,5.14583 71.5729,5.75521 71.5,6.64062 L75.5469,6.64062 M78.625,1.64062 L79.125,1.64062 L79.125,6.71875 L82.1094,3.98438 L82.7812,3.98438 L79.6719,6.82812 L82.8906,10 L82.25,10 L79.125,6.92188 L79.125,10 L78.625,10 L78.625,1.64062 M87.0625,1.64062 L87.0625,2.0625 L86.375,2.0625 C86.0104,2.0625 85.7292,2.15625 85.5312,2.34375 C85.2917,2.57292 85.1719,2.94271 85.1719,3.45312 L85.1719,3.98438 L86.7969,3.98438 L86.7969,4.40625 L85.1719,4.40625 L85.1719,10 L84.6719,10 L84.6719,4.40625 L83.7344,4.40625 L83.7344,3.98438 L84.6719,3.98438 L84.6719,3.5625 C84.6719,2.89583 84.8281,2.41146 85.1406,2.10938 C85.4427,1.79688 85.8542,1.64062 86.375,1.64062 L87.0625,1.64062"/>
</g>

<g fill="none" stroke="#000000" stroke-opacity="1" stroke-width="1" stroke-linecap="square" stroke-linejoin="bevel" transform="matrix(2,0,0,2,368.663,87)"
font-family="sans" font-size="11" font-weight="100" font-style="normal" 
>
</g>

<g fill="none" stroke="#000000" stroke-opacity="1" stroke-width="1" stroke-linecap="square" stroke-linejoin="bevel" transform="matrix(2,0,0,2,368.663,87)"
font-family="Ubuntu" font-size="11" font-weight="400" font-style="normal" 
>
</g>

<g fill="none" stroke="#000000" stroke-opacity="1" stroke-width="1" stroke-linecap="square" stroke-linejoin="bevel" transform="matrix(2,0,0,2,-0.0032,190)"
font-family="Ubuntu" font-size="11" font-weight="400" font-style="normal" 
>
</g>

<g fill="none" stroke="#000000" stroke-opacity="1" stroke-width="1" stroke-linecap="square" stroke-linejoin="bevel" transform="matrix(2,0,0,2,-0.0032,190)"
font-family="Ubuntu" font-size="11" font-weight="400" font-style="normal" 
>
</g>

<g fill="none" stroke="#000000" stroke-opacity="1" stroke-width="1" stroke-linecap="square" stroke-linejoin="bevel" transform="matrix(2,0,0,2,-0.0032,190)"
font-family="Ubuntu" font-size="11" font-weight="400" font-style="normal" 
>
</g>

<g fill="none" stroke="#000000" stroke-opacity="1" stroke-width="1" stroke-linecap="square" stroke-linejoin="round" transform="matrix(2,0,0,2,-0.0032,190)"
font-family="Ubuntu" font-size="11" font-weight="400" font-style="normal" 
>
<ellipse cx="544.87" cy="-45" rx="48.8956" ry="17.5"/>
</g>

<g fill="none" stroke="#000000" stroke-opacity="1" stroke-width="1" stroke-linecap="square" stroke-linejoin="bevel" transform="matrix(2,0,0,2,-0.0032,190)"
font-family="Ubuntu" font-size="11" font-weight="400" font-style="normal" 
>
</g>

<g fill="none" stroke="#000000" stroke-opacity="1" stroke-width="1" stroke-linecap="square" stroke-linejoin="bevel" transform="matrix(2,0,0,2,1032.44,87)"
font-family="Ubuntu" font-size="11" font-weight="400" font-style="normal" 
>
</g>

<g fill="none" stroke="#000000" stroke-opacity="1" stroke-width="1" stroke-linecap="square" stroke-linejoin="bevel" transform="matrix(2,0,0,2,1032.44,87)"
font-family="sans" font-size="11" font-weight="100" font-style="normal" 
>
</g>

<g fill="#000000" fill-opacity="1" stroke="#000000" stroke-opacity="1" stroke-width="1" stroke-linecap="square" stroke-linejoin="round" transform="matrix(2,0,0,2,1032.44,87)"
font-family="sans" font-size="11" font-weight="100" font-style="normal" 
>
<path vector-effect="none" fill-rule="nonzero" d="M2.96875,1.98438 L3.53125,1.98438 L0.734375,11.0156 L0.171875,11.0156 L2.96875,1.98438 M8.53125,5.01562 C8.17708,4.52604 7.69271,4.28125 7.07812,4.28125 C6.46354,4.28125 5.97917,4.52604 5.625,5.01562 C5.27083,5.49479 5.09375,6.15104 5.09375,6.98438 C5.09375,7.83854 5.27083,8.51042 5.625,9 C5.97917,9.48958 6.46354,9.73438 7.07812,9.73438 C7.69271,9.73438 8.17708,9.48958 8.53125,9 C8.88542,8.5 9.0625,7.82812 9.0625,6.98438 C9.0625,6.16146 8.88542,5.50521 8.53125,5.01562 M7.07812,3.84375 C7.83854,3.84375 8.44271,4.13021 8.89062,4.70312 C9.33854,5.27604 9.5625,6.03646 9.5625,6.98438 C9.5625,7.97396 9.33854,8.75521 8.89062,9.32812 C8.44271,9.90104 7.83854,10.1875 7.07812,10.1875 C6.29688,10.1875 5.68229,9.90104 5.23438,9.32812 C4.79688,8.75521 4.57812,7.97396 4.57812,6.98438 C4.57812,6.02604 4.80208,5.26302 5.25,4.69531 C5.69792,4.1276 6.30729,3.84375 7.07812,3.84375 M15.6719,5.35938 L15.6719,1.64062 L16.1406,1.64062 L16.1406,10 L15.6719,10 L15.6719,8.64062 C15.4427,9.16146 15.1927,9.51562 14.9219,9.70312 C14.526,10.0052 14.1458,10.1562 13.7812,10.1562 C13.0729,10.1562 12.4818,9.86719 12.0078,9.28906 C11.5339,8.71094 11.2969,7.94792 11.2969,7 C11.2969,6.05208 11.5339,5.28906 12.0078,4.71094 C12.4818,4.13281 13.0729,3.84375 13.7812,3.84375 C14.1458,3.84375 14.526,3.98958 14.9219,4.28125 C15.1927,4.47917 15.4427,4.83854 15.6719,5.35938 M12.4375,4.90625 C12.0208,5.32292 11.8125,6.02083 11.8125,7 C11.8125,7.97917 12.0208,8.67708 12.4375,9.09375 C12.8542,9.51042 13.2917,9.71875 13.75,9.71875 C14.1979,9.71875 14.6302,9.51042 15.0469,9.09375 C15.4531,8.67708 15.6562,7.97917 15.6562,7 C15.6562,6.02083 15.4531,5.32292 15.0469,4.90625 C14.6302,4.48958 14.1979,4.28125 13.75,4.28125 C13.2917,4.28125 12.8542,4.48958 12.4375,4.90625 M22.2188,5.01562 C21.8646,4.52604 21.3802,4.28125 20.7656,4.28125 C20.151,4.28125 19.6667,4.52604 19.3125,5.01562 C18.9583,5.49479 18.7812,6.15104 18.7812,6.98438 C18.7812,7.83854 18.9583,8.51042 19.3125,9 C19.6667,9.48958 20.151,9.73438 20.7656,9.73438 C21.3802,9.73438 21.8646,9.48958 22.2188,9 C22.5729,8.5 22.75,7.82812 22.75,6.98438 C22.75,6.16146 22.5729,5.50521 22.2188,5.01562 M20.7656,3.84375 C21.526,3.84375 22.1302,4.13021 22.5781,4.70312 C23.026,5.27604 23.25,6.03646 23.25,6.98438 C23.25,7.97396 23.026,8.75521 22.5781,9.32812 C22.1302,9.90104 21.526,10.1875 20.7656,10.1875 C19.9844,10.1875 19.3698,9.90104 18.9219,9.32812 C18.4844,8.75521 18.2656,7.97396 18.2656,6.98438 C18.2656,6.02604 18.4896,5.26302 18.9375,4.69531 C19.3854,4.1276 19.9948,3.84375 20.7656,3.84375 M29.6875,5.29688 C29.875,4.80729 30.1667,4.44271 30.5625,4.20312 C30.9479,3.96354 31.401,3.84375 31.9219,3.84375 C32.4427,3.84375 32.8594,4.02604 33.1719,4.39062 C33.4948,4.75521 33.6562,5.41667 33.6562,6.375 L33.6562,10 L33.1719,10 L33.1719,6.40625 C33.1719,5.57292 33.0573,5.01042 32.8281,4.71875 C32.599,4.42708 32.2917,4.28125 31.9062,4.28125 C31.3542,4.28125 30.8698,4.44792 30.4531,4.78125 C29.9844,5.15625 29.75,5.76042 29.75,6.59375 L29.75,10 L29.2656,10 L29.2656,6.40625 C29.2656,5.60417 29.1536,5.04948 28.9297,4.74219 C28.7057,4.4349 28.3958,4.28125 28,4.28125 C27.4479,4.28125 26.9635,4.45312 26.5469,4.79688 C26.0781,5.16146 25.8438,5.76042 25.8438,6.59375 L25.8438,10 L25.3594,10 L25.3594,3.98438 L25.8438,3.98438 L25.8438,5.10938 C26.0208,4.71354 26.2969,4.40104 26.6719,4.17188 C27.0365,3.95312 27.4896,3.84375 28.0312,3.84375 C28.3854,3.84375 28.724,3.95833 29.0469,4.1875 C29.2969,4.375 29.5104,4.74479 29.6875,5.29688 M40.4219,12.1719 L40.4219,12.5938 L34.7031,12.5938 L34.7031,12.1719 L40.4219,12.1719 M46.25,6.75 L46.25,7.0625 L41.6875,7.0625 C41.6875,8.02083 41.875,8.69792 42.25,9.09375 C42.6667,9.52083 43.2812,9.73438 44.0938,9.73438 C44.3125,9.73438 44.599,9.6875 44.9531,9.59375 C45.3073,9.5 45.6615,9.35938 46.0156,9.17188 L46.0156,9.6875 C45.6615,9.84375 45.2995,9.96094 44.9297,10.0391 C44.5599,10.1172 44.2656,10.1562 44.0469,10.1562 C43.1198,10.1562 42.4219,9.90625 41.9531,9.40625 C41.4427,8.875 41.1875,8.09375 41.1875,7.0625 C41.1875,5.98958 41.4167,5.1875 41.875,4.65625 C42.3542,4.11458 43.0208,3.84375 43.875,3.84375 C44.6562,3.84375 45.25,4.10417 45.6562,4.625 C46.0521,5.16667 46.25,5.875 46.25,6.75 M45.75,6.64062 C45.75,5.79688 45.5573,5.18229 45.1719,4.79688 C44.8594,4.45312 44.4271,4.28125 43.875,4.28125 C43.2812,4.28125 42.7812,4.45833 42.375,4.8125 C42,5.14583 41.776,5.75521 41.7031,6.64062 L45.75,6.64062 M48.8281,1.64062 L49.3281,1.64062 L49.3281,6.71875 L52.3125,3.98438 L52.9844,3.98438 L49.875,6.82812 L53.0938,10 L52.4531,10 L49.3281,6.92188 L49.3281,10 L48.8281,10 L48.8281,1.64062 M57.2656,1.64062 L57.2656,2.0625 L56.5781,2.0625 C56.2135,2.0625 55.9323,2.15625 55.7344,2.34375 C55.4948,2.57292 55.375,2.94271 55.375,3.45312 L55.375,3.98438 L57,3.98438 L57,4.40625 L55.375,4.40625 L55.375,10 L54.875,10 L54.875,4.40625 L53.9375,4.40625 L53.9375,3.98438 L54.875,3.98438 L54.875,3.5625 C54.875,2.89583 55.0312,2.41146 55.3438,2.10938 C55.6458,1.79688 56.0573,1.64062 56.5781,1.64062 L57.2656,1.64062"/>
</g>

<g fill="none" stroke="#000000" stroke-opacity="1" stroke-width="1" stroke-linecap="square" stroke-linejoin="bevel" transform="matrix(2,0,0,2,1032.44,87)"
font-family="sans" font-size="11" font-weight="100" font-style="normal" 
>
</g>

<g fill="none" stroke="#000000" stroke-opacity="1" stroke-width="1" stroke-linecap="square" stroke-linejoin="bevel" transform="matrix(2,0,0,2,1032.44,87)"
font-family="Ubuntu" font-size="11" font-weight="400" font-style="normal" 
>
</g>

<g fill="none" stroke="#000000" stroke-opacity="1" stroke-width="1" stroke-linecap="square" stroke-linejoin="bevel" transform="matrix(2,0,0,2,-0.0032,190)"
font-family="Ubuntu" font-size="11" font-weight="400" font-style="normal" 
>
</g>

<g fill="none" stroke="#000000" stroke-opacity="1" stroke-width="1" stroke-linecap="square" stroke-linejoin="bevel" transform="matrix(2,0,0,2,-0.0032,190)"
font-family="Ubuntu" font-size="11" font-weight="400" font-style="normal" 
>
</g>

<g fill="none" stroke="#000000" stroke-opacity="1" stroke-width="1" stroke-linecap="square" stroke-linejoin="bevel" transform="matrix(2,0,0,2,-0.0032,190)"
font-family="Ubuntu" font-size="11" font-weight="400" font-style="normal" 
>
</g>

<g fill="none" stroke="#000000" stroke-opacity="1" stroke-width="1" stroke-linecap="square" stroke-linejoin="round" transform="matrix(2,0,0,2,-0.0032,190)"
font-family="Ubuntu" font-size="11" font-weight="400" font-style="normal" 
>
<ellipse cx="65.644" cy="-18" rx="33.2972" ry="17.5"/>
</g>

<g fill="none" stroke="#000000" stroke-opacity="1" stroke-width="1" stroke-linecap="square" stroke-linejoin="bevel" transform="matrix(2,0,0,2,-0.0032,190)"
font-family="Ubuntu" font-size="11" font-weight="400" font-style="normal" 
>
</g>

<g fill="none" stroke="#000000" stroke-opacity="1" stroke-width="1" stroke-linecap="square" stroke-linejoin="bevel" transform="matrix(2,0,0,2,96.4723,141)"
font-family="Ubuntu" font-size="11" font-weight="400" font-style="normal" 
>
</g>

<g fill="none" stroke="#000000" stroke-opacity="1" stroke-width="1" stroke-linecap="square" stroke-linejoin="bevel" transform="matrix(2,0,0,2,96.4723,141)"
font-family="sans" font-size="11" font-weight="100" font-style="normal" 
>
</g>

<g fill="#000000" fill-opacity="1" stroke="#000000" stroke-opacity="1" stroke-width="1" stroke-linecap="square" stroke-linejoin="round" transform="matrix(2,0,0,2,96.4723,141)"
font-family="sans" font-size="11" font-weight="100" font-style="normal" 
>
<path vector-effect="none" fill-rule="nonzero" d="M2.96875,1.98438 L3.53125,1.98438 L0.734375,11.0156 L0.171875,11.0156 L2.96875,1.98438 M8.53125,5.01562 C8.17708,4.52604 7.69271,4.28125 7.07812,4.28125 C6.46354,4.28125 5.97917,4.52604 5.625,5.01562 C5.27083,5.49479 5.09375,6.15104 5.09375,6.98438 C5.09375,7.83854 5.27083,8.51042 5.625,9 C5.97917,9.48958 6.46354,9.73438 7.07812,9.73438 C7.69271,9.73438 8.17708,9.48958 8.53125,9 C8.88542,8.5 9.0625,7.82812 9.0625,6.98438 C9.0625,6.16146 8.88542,5.50521 8.53125,5.01562 M7.07812,3.84375 C7.83854,3.84375 8.44271,4.13021 8.89062,4.70312 C9.33854,5.27604 9.5625,6.03646 9.5625,6.98438 C9.5625,7.97396 9.33854,8.75521 8.89062,9.32812 C8.44271,9.90104 7.83854,10.1875 7.07812,10.1875 C6.29688,10.1875 5.68229,9.90104 5.23438,9.32812 C4.79688,8.75521 4.57812,7.97396 4.57812,6.98438 C4.57812,6.02604 4.80208,5.26302 5.25,4.69531 C5.69792,4.1276 6.30729,3.84375 7.07812,3.84375 M15.6719,5.35938 L15.6719,1.64062 L16.1406,1.64062 L16.1406,10 L15.6719,10 L15.6719,8.64062 C15.4427,9.16146 15.1927,9.51562 14.9219,9.70312 C14.526,10.0052 14.1458,10.1562 13.7812,10.1562 C13.0729,10.1562 12.4818,9.86719 12.0078,9.28906 C11.5339,8.71094 11.2969,7.94792 11.2969,7 C11.2969,6.05208 11.5339,5.28906 12.0078,4.71094 C12.4818,4.13281 13.0729,3.84375 13.7812,3.84375 C14.1458,3.84375 14.526,3.98958 14.9219,4.28125 C15.1927,4.47917 15.4427,4.83854 15.6719,5.35938 M12.4375,4.90625 C12.0208,5.32292 11.8125,6.02083 11.8125,7 C11.8125,7.97917 12.0208,8.67708 12.4375,9.09375 C12.8542,9.51042 13.2917,9.71875 13.75,9.71875 C14.1979,9.71875 14.6302,9.51042 15.0469,9.09375 C15.4531,8.67708 15.6562,7.97917 15.6562,7 C15.6562,6.02083 15.4531,5.32292 15.0469,4.90625 C14.6302,4.48958 14.1979,4.28125 13.75,4.28125 C13.2917,4.28125 12.8542,4.48958 12.4375,4.90625 M22.2188,5.01562 C21.8646,4.52604 21.3802,4.28125 20.7656,4.28125 C20.151,4.28125 19.6667,4.52604 19.3125,5.01562 C18.9583,5.49479 18.7812,6.15104 18.7812,6.98438 C18.7812,7.83854 18.9583,8.51042 19.3125,9 C19.6667,9.48958 20.151,9.73438 20.7656,9.73438 C21.3802,9.73438 21.8646,9.48958 22.2188,9 C22.5729,8.5 22.75,7.82812 22.75,6.98438 C22.75,6.16146 22.5729,5.50521 22.2188,5.01562 M20.7656,3.84375 C21.526,3.84375 22.1302,4.13021 22.5781,4.70312 C23.026,5.27604 23.25,6.03646 23.25,6.98438 C23.25,7.97396 23.026,8.75521 22.5781,9.32812 C22.1302,9.90104 21.526,10.1875 20.7656,10.1875 C19.9844,10.1875 19.3698,9.90104 18.9219,9.32812 C18.4844,8.75521 18.2656,7.97396 18.2656,6.98438 C18.2656,6.02604 18.4896,5.26302 18.9375,4.69531 C19.3854,4.1276 19.9948,3.84375 20.7656,3.84375 M29.6875,5.29688 C29.875,4.80729 30.1667,4.44271 30.5625,4.20312 C30.9479,3.96354 31.401,3.84375 31.9219,3.84375 C32.4427,3.84375 32.8594,4.02604 33.1719,4.39062 C33.4948,4.75521 33.6562,5.41667 33.6562,6.375 L33.6562,10 L33.1719,10 L33.1719,6.40625 C33.1719,5.57292 33.0573,5.01042 32.8281,4.71875 C32.599,4.42708 32.2917,4.28125 31.9062,4.28125 C31.3542,4.28125 30.8698,4.44792 30.4531,4.78125 C29.9844,5.15625 29.75,5.76042 29.75,6.59375 L29.75,10 L29.2656,10 L29.2656,6.40625 C29.2656,5.60417 29.1536,5.04948 28.9297,4.74219 C28.7057,4.4349 28.3958,4.28125 28,4.28125 C27.4479,4.28125 26.9635,4.45312 26.5469,4.79688 C26.0781,5.16146 25.8438,5.76042 25.8438,6.59375 L25.8438,10 L25.3594,10 L25.3594,3.98438 L25.8438,3.98438 L25.8438,5.10938 C26.0208,4.71354 26.2969,4.40104 26.6719,4.17188 C27.0365,3.95312 27.4896,3.84375 28.0312,3.84375 C28.3854,3.84375 28.724,3.95833 29.0469,4.1875 C29.2969,4.375 29.5104,4.74479 29.6875,5.29688 "/>
</g>

<g fill="none" stroke="#000000" stroke-opacity="1" stroke-width="1" stroke-linecap="square" stroke-linejoin="bevel" transform="matrix(2,0,0,2,96.4723,141)"
font-family="sans" font-size="11" font-weight="100" font-style="normal" 
>
</g>

<g fill="none" stroke="#000000" stroke-opacity="1" stroke-width="1" stroke-linecap="square" stroke-linejoin="bevel" transform="matrix(2,0,0,2,96.4723,141)"
font-family="Ubuntu" font-size="11" font-weight="400" font-style="normal" 
>
</g>

<g fill="none" stroke="#000000" stroke-opacity="1" stroke-width="1" stroke-linecap="square" stroke-linejoin="bevel" transform="matrix(2,0,0,2,-0.0032,190)"
font-family="Ubuntu" font-size="11" font-weight="400" font-style="normal" 
>
</g>

<g fill="none" stroke="#000000" stroke-opacity="1" stroke-width="1" stroke-linecap="square" stroke-linejoin="bevel" transform="matrix(2,0,0,2,-0.0032,190)"
font-family="Ubuntu" font-size="11" font-weight="400" font-style="normal" 
>
</g>

<g fill="none" stroke="#000000" stroke-opacity="1" stroke-width="1" stroke-linecap="square" stroke-linejoin="bevel" transform="matrix(2,0,0,2,-0.0032,190)"
font-family="Ubuntu" font-size="11" font-weight="400" font-style="normal" 
>
</g>

<g fill="none" stroke="#000000" stroke-opacity="1" stroke-width="1" stroke-linecap="square" stroke-linejoin="round" transform="matrix(2,0,0,2,-0.0032,190)"
font-family="Ubuntu" font-size="11" font-weight="400" font-style="normal" 
>
<path vector-effect="none" fill-rule="evenodd" d="M295.68,-45 C351.84,-45 431.33,-45 485.1,-45 "/>
</g>

<g fill="none" stroke="#000000" stroke-opacity="1" stroke-width="1" stroke-linecap="square" stroke-linejoin="bevel" transform="matrix(2,0,0,2,-0.0032,190)"
font-family="Ubuntu" font-size="11" font-weight="400" font-style="normal" 
>
</g>

<g fill="none" stroke="#000000" stroke-opacity="1" stroke-width="1" stroke-linecap="square" stroke-linejoin="bevel" transform="matrix(2,0,0,2,609.363,72)"
font-family="Ubuntu" font-size="11" font-weight="400" font-style="normal" 
>
</g>

<g fill="none" stroke="#000000" stroke-opacity="1" stroke-width="1" stroke-linecap="square" stroke-linejoin="bevel" transform="matrix(2,0,0,2,609.363,72)"
font-family="sans" font-size="11" font-weight="100" font-style="normal" 
>
</g>

<g fill="#000000" fill-opacity="1" stroke="#000000" stroke-opacity="1" stroke-width="1" stroke-linecap="square" stroke-linejoin="round" transform="matrix(2,0,0,2,609.363,72)"
font-family="sans" font-size="11" font-weight="100" font-style="normal" 
>
<path vector-effect="none" fill-rule="nonzero" d="M2.96875,1.98438 L3.53125,1.98438 L0.734375,11.0156 L0.171875,11.0156 L2.96875,1.98438 M8.21875,4.40625 C8.13542,4.36458 8.02604,4.33333 7.89062,4.3125 C7.76562,4.29167 7.61458,4.28125 7.4375,4.28125 C6.82292,4.28125 6.31771,4.50521 5.92188,4.95312 C5.59896,5.31771 5.4375,5.94271 5.4375,6.82812 L5.4375,10 L4.95312,10 L4.95312,3.98438 L5.4375,3.98438 L5.4375,5.10938 C5.60417,4.78646 5.83333,4.51562 6.125,4.29688 C6.52083,3.99479 6.98958,3.84375 7.53125,3.84375 C7.67708,3.84375 7.80208,3.84896 7.90625,3.85938 C8.01042,3.85938 8.11458,3.86979 8.21875,3.89062 L8.21875,4.40625 M13.0469,5.01562 C12.6927,4.52604 12.2083,4.28125 11.5938,4.28125 C10.9792,4.28125 10.4948,4.52604 10.1406,5.01562 C9.78646,5.49479 9.60938,6.15104 9.60938,6.98438 C9.60938,7.83854 9.78646,8.51042 10.1406,9 C10.4948,9.48958 10.9792,9.73438 11.5938,9.73438 C12.2083,9.73438 12.6927,9.48958 13.0469,9 C13.401,8.5 13.5781,7.82812 13.5781,6.98438 C13.5781,6.16146 13.401,5.50521 13.0469,5.01562 M11.5938,3.84375 C12.3542,3.84375 12.9583,4.13021 13.4062,4.70312 C13.8542,5.27604 14.0781,6.03646 14.0781,6.98438 C14.0781,7.97396 13.8542,8.75521 13.4062,9.32812 C12.9583,9.90104 12.3542,10.1875 11.5938,10.1875 C10.8125,10.1875 10.1979,9.90104 9.75,9.32812 C9.3125,8.75521 9.09375,7.97396 9.09375,6.98438 C9.09375,6.02604 9.31771,5.26302 9.76562,4.69531 C10.2135,4.1276 10.8229,3.84375 11.5938,3.84375 M19.9062,9.09375 C20.3229,8.67708 20.5312,7.97917 20.5312,7 C20.5312,6.02083 20.3229,5.32292 19.9062,4.90625 C19.4896,4.48958 19.0521,4.28125 18.5938,4.28125 C18.1458,4.28125 17.7135,4.48958 17.2969,4.90625 C16.8906,5.32292 16.6875,6.02083 16.6875,7 C16.6875,7.97917 16.8906,8.67708 17.2969,9.09375 C17.7135,9.51042 18.1458,9.71875 18.5938,9.71875 C19.0521,9.71875 19.4896,9.51042 19.9062,9.09375 M16.6719,5.35938 C16.901,4.83854 17.1458,4.47917 17.4062,4.28125 C17.8125,3.98958 18.1979,3.84375 18.5625,3.84375 C19.2708,3.84375 19.862,4.13281 20.3359,4.71094 C20.8099,5.28906 21.0469,6.05208 21.0469,7 C21.0469,7.94792 20.8099,8.71094 20.3359,9.28906 C19.862,9.86719 19.2708,10.1562 18.5625,10.1562 C18.1979,10.1562 17.8125,10.0052 17.4062,9.70312 C17.1458,9.51562 16.901,9.16146 16.6719,8.64062 L16.6719,10 L16.1875,10 L16.1875,1.64062 L16.6719,1.64062 L16.6719,5.35938 M26.7344,5.01562 C26.3802,4.52604 25.8958,4.28125 25.2812,4.28125 C24.6667,4.28125 24.1823,4.52604 23.8281,5.01562 C23.474,5.49479 23.2969,6.15104 23.2969,6.98438 C23.2969,7.83854 23.474,8.51042 23.8281,9 C24.1823,9.48958 24.6667,9.73438 25.2812,9.73438 C25.8958,9.73438 26.3802,9.48958 26.7344,9 C27.0885,8.5 27.2656,7.82812 27.2656,6.98438 C27.2656,6.16146 27.0885,5.50521 26.7344,5.01562 M25.2812,3.84375 C26.0417,3.84375 26.6458,4.13021 27.0938,4.70312 C27.5417,5.27604 27.7656,6.03646 27.7656,6.98438 C27.7656,7.97396 27.5417,8.75521 27.0938,9.32812 C26.6458,9.90104 26.0417,10.1875 25.2812,10.1875 C24.5,10.1875 23.8854,9.90104 23.4375,9.32812 C23,8.75521 22.7812,7.97396 22.7812,6.98438 C22.7812,6.02604 23.0052,5.26302 23.4531,4.69531 C23.901,4.1276 24.5104,3.84375 25.2812,3.84375 M30.3906,2.28125 L30.3906,3.98438 L32.4219,3.98438 L32.4219,4.40625 L30.3906,4.40625 L30.3906,8.01562 C30.3906,8.47396 30.4479,8.79688 30.5625,8.98438 C30.8125,9.38021 31.1719,9.57812 31.6406,9.57812 L32.4219,9.57812 L32.4219,10 L31.6562,10 C31.1667,10 30.75,9.85677 30.4062,9.57031 C30.0625,9.28385 29.8906,8.76562 29.8906,8.01562 L29.8906,4.40625 L29.1719,4.40625 L29.1719,3.98438 L29.8906,3.98438 L29.8906,2.28125 L30.3906,2.28125 M38.5469,12.1719 L38.5469,12.5938 L32.8281,12.5938 L32.8281,12.1719 L38.5469,12.1719 M40.1719,8.64062 L40.1719,12.2812 L39.6875,12.2812 L39.6875,3.98438 L40.1719,3.98438 L40.1719,5.35938 C40.401,4.83854 40.6458,4.47917 40.9062,4.28125 C41.3125,3.98958 41.6979,3.84375 42.0625,3.84375 C42.7708,3.84375 43.362,4.13281 43.8359,4.71094 C44.3099,5.28906 44.5469,6.05208 44.5469,7 C44.5469,7.94792 44.3099,8.71094 43.8359,9.28906 C43.362,9.86719 42.7708,10.1562 42.0625,10.1562 C41.6979,10.1562 41.3125,10.0052 40.9062,9.70312 C40.6458,9.51562 40.401,9.16146 40.1719,8.64062 M43.4062,9.09375 C43.8229,8.67708 44.0312,7.97917 44.0312,7 C44.0312,6.02083 43.8229,5.32292 43.4062,4.90625 C42.9896,4.48958 42.5521,4.28125 42.0938,4.28125 C41.6458,4.28125 41.2135,4.48958 40.7969,4.90625 C40.3906,5.32292 40.1875,6.02083 40.1875,7 C40.1875,7.97917 40.3906,8.67708 40.7969,9.09375 C41.2135,9.51042 41.6458,9.71875 42.0938,9.71875 C42.5521,9.71875 42.9896,9.51042 43.4062,9.09375 M50.2344,5.01562 C49.8802,4.52604 49.3958,4.28125 48.7812,4.28125 C48.1667,4.28125 47.6823,4.52604 47.3281,5.01562 C46.974,5.49479 46.7969,6.15104 46.7969,6.98438 C46.7969,7.83854 46.974,8.51042 47.3281,9 C47.6823,9.48958 48.1667,9.73438 48.7812,9.73438 C49.3958,9.73438 49.8802,9.48958 50.2344,9 C50.5885,8.5 50.7656,7.82812 50.7656,6.98438 C50.7656,6.16146 50.5885,5.50521 50.2344,5.01562 M48.7812,3.84375 C49.5417,3.84375 50.1458,4.13021 50.5938,4.70312 C51.0417,5.27604 51.2656,6.03646 51.2656,6.98438 C51.2656,7.97396 51.0417,8.75521 50.5938,9.32812 C50.1458,9.90104 49.5417,10.1875 48.7812,10.1875 C48,10.1875 47.3854,9.90104 46.9375,9.32812 C46.5,8.75521 46.2812,7.97396 46.2812,6.98438 C46.2812,6.02604 46.5052,5.26302 46.9531,4.69531 C47.401,4.1276 48.0104,3.84375 48.7812,3.84375 M56.7812,4.15625 L56.7812,4.70312 C56.4271,4.50521 56.2083,4.39583 56.125,4.375 C55.875,4.32292 55.5625,4.29167 55.1875,4.28125 C54.625,4.28125 54.1823,4.39062 53.8594,4.60938 C53.6094,4.79688 53.4844,5.11458 53.4844,5.5625 C53.4844,5.875 53.6042,6.11458 53.8438,6.28125 C54.0833,6.46875 54.4323,6.61458 54.8906,6.71875 L55.2344,6.78125 C55.8073,6.90625 56.2396,7.08333 56.5312,7.3125 C56.875,7.58333 57.0521,7.92708 57.0625,8.34375 C57.0625,8.90625 56.8958,9.34896 56.5625,9.67188 C56.2083,9.99479 55.6302,10.1562 54.8281,10.1562 C54.3906,10.1562 54.0573,10.125 53.8281,10.0625 C53.5469,9.98958 53.2552,9.89583 52.9531,9.78125 L52.9531,9.15625 C53.3906,9.40625 53.6719,9.55208 53.7969,9.59375 C54.151,9.6875 54.5052,9.73438 54.8594,9.73438 C55.4323,9.73438 55.8594,9.61458 56.1406,9.375 C56.4219,9.125 56.5625,8.80729 56.5625,8.42188 C56.5625,8.08854 56.4688,7.84896 56.2812,7.70312 C56.0104,7.48438 55.5833,7.30729 55,7.17188 L54.6562,7.09375 C54.1458,6.96875 53.7604,6.80208 53.5,6.59375 C53.1667,6.32292 53,5.99479 53,5.60938 C53,4.98438 53.2005,4.53385 53.6016,4.25781 C54.0026,3.98177 54.4948,3.84375 55.0781,3.84375 C55.5781,3.84375 55.9219,3.86979 56.1094,3.92188 C56.3385,3.98438 56.5625,4.0625 56.7812,4.15625 M63.7812,6.75 L63.7812,7.0625 L59.2188,7.0625 C59.2188,8.02083 59.4062,8.69792 59.7812,9.09375 C60.1979,9.52083 60.8125,9.73438 61.625,9.73438 C61.8438,9.73438 62.1302,9.6875 62.4844,9.59375 C62.8385,9.5 63.1927,9.35938 63.5469,9.17188 L63.5469,9.6875 C63.1927,9.84375 62.8307,9.96094 62.4609,10.0391 C62.0911,10.1172 61.7969,10.1562 61.5781,10.1562 C60.651,10.1562 59.9531,9.90625 59.4844,9.40625 C58.974,8.875 58.7188,8.09375 58.7188,7.0625 C58.7188,5.98958 58.9479,5.1875 59.4062,4.65625 C59.8854,4.11458 60.5521,3.84375 61.4062,3.84375 C62.1875,3.84375 62.7812,4.10417 63.1875,4.625 C63.5833,5.16667 63.7812,5.875 63.7812,6.75 M63.2812,6.64062 C63.2812,5.79688 63.0885,5.18229 62.7031,4.79688 C62.3906,4.45312 61.9583,4.28125 61.4062,4.28125 C60.8125,4.28125 60.3125,4.45833 59.9062,4.8125 C59.5312,5.14583 59.3073,5.75521 59.2344,6.64062 L63.2812,6.64062 M70.2188,12.1719 L70.2188,12.5938 L64.5,12.5938 L64.5,12.1719 L70.2188,12.1719 M76.0469,6.75 L76.0469,7.0625 L71.4844,7.0625 C71.4844,8.02083 71.6719,8.69792 72.0469,9.09375 C72.4635,9.52083 73.0781,9.73438 73.8906,9.73438 C74.1094,9.73438 74.3958,9.6875 74.75,9.59375 C75.1042,9.5 75.4583,9.35938 75.8125,9.17188 L75.8125,9.6875 C75.4583,9.84375 75.0964,9.96094 74.7266,10.0391 C74.3568,10.1172 74.0625,10.1562 73.8438,10.1562 C72.9167,10.1562 72.2188,9.90625 71.75,9.40625 C71.2396,8.875 70.9844,8.09375 70.9844,7.0625 C70.9844,5.98958 71.2135,5.1875 71.6719,4.65625 C72.151,4.11458 72.8177,3.84375 73.6719,3.84375 C74.4531,3.84375 75.0469,4.10417 75.4531,4.625 C75.849,5.16667 76.0469,5.875 76.0469,6.75 M75.5469,6.64062 C75.5469,5.79688 75.3542,5.18229 74.9688,4.79688 C74.6562,4.45312 74.224,4.28125 73.6719,4.28125 C73.0781,4.28125 72.5781,4.45833 72.1719,4.8125 C71.7969,5.14583 71.5729,5.75521 71.5,6.64062 L75.5469,6.64062 M78.625,1.64062 L79.125,1.64062 L79.125,6.71875 L82.1094,3.98438 L82.7812,3.98438 L79.6719,6.82812 L82.8906,10 L82.25,10 L79.125,6.92188 L79.125,10 L78.625,10 L78.625,1.64062 M87.0625,1.64062 L87.0625,2.0625 L86.375,2.0625 C86.0104,2.0625 85.7292,2.15625 85.5312,2.34375 C85.2917,2.57292 85.1719,2.94271 85.1719,3.45312 L85.1719,3.98438 L86.7969,3.98438 L86.7969,4.40625 L85.1719,4.40625 L85.1719,10 L84.6719,10 L84.6719,4.40625 L83.7344,4.40625 L83.7344,3.98438 L84.6719,3.98438 L84.6719,3.5625 C84.6719,2.89583 84.8281,2.41146 85.1406,2.10938 C85.4427,1.79688 85.8542,1.64062 86.375,1.64062 L87.0625,1.64062 M90.0625,1.98438 L90.625,1.98438 L87.8281,11.0156 L87.2656,11.0156 L90.0625,1.98438 M95.625,5.01562 C95.2708,4.52604 94.7865,4.28125 94.1719,4.28125 C93.5573,4.28125 93.0729,4.52604 92.7188,5.01562 C92.3646,5.49479 92.1875,6.15104 92.1875,6.98438 C92.1875,7.83854 92.3646,8.51042 92.7188,9 C93.0729,9.48958 93.5573,9.73438 94.1719,9.73438 C94.7865,9.73438 95.2708,9.48958 95.625,9 C95.9792,8.5 96.1562,7.82812 96.1562,6.98438 C96.1562,6.16146 95.9792,5.50521 95.625,5.01562 M94.1719,3.84375 C94.9323,3.84375 95.5365,4.13021 95.9844,4.70312 C96.4323,5.27604 96.6562,6.03646 96.6562,6.98438 C96.6562,7.97396 96.4323,8.75521 95.9844,9.32812 C95.5365,9.90104 94.9323,10.1875 94.1719,10.1875 C93.3906,10.1875 92.776,9.90104 92.3281,9.32812 C91.8906,8.75521 91.6719,7.97396 91.6719,6.98438 C91.6719,6.02604 91.8958,5.26302 92.3438,4.69531 C92.7917,4.1276 93.401,3.84375 94.1719,3.84375 M102.766,5.35938 L102.766,1.64062 L103.234,1.64062 L103.234,10 L102.766,10 L102.766,8.64062 C102.536,9.16146 102.286,9.51562 102.016,9.70312 C101.62,10.0052 101.24,10.1562 100.875,10.1562 C100.167,10.1562 99.5755,9.86719 99.1016,9.28906 C98.6276,8.71094 98.3906,7.94792 98.3906,7 C98.3906,6.05208 98.6276,5.28906 99.1016,4.71094 C99.5755,4.13281 100.167,3.84375 100.875,3.84375 C101.24,3.84375 101.62,3.98958 102.016,4.28125 C102.286,4.47917 102.536,4.83854 102.766,5.35938 M99.5312,4.90625 C99.1146,5.32292 98.9062,6.02083 98.9062,7 C98.9062,7.97917 99.1146,8.67708 99.5312,9.09375 C99.9479,9.51042 100.385,9.71875 100.844,9.71875 C101.292,9.71875 101.724,9.51042 102.141,9.09375 C102.547,8.67708 102.75,7.97917 102.75,7 C102.75,6.02083 102.547,5.32292 102.141,4.90625 C101.724,4.48958 101.292,4.28125 100.844,4.28125 C100.385,4.28125 99.9479,4.48958 99.5312,4.90625 M109.312,5.01562 C108.958,4.52604 108.474,4.28125 107.859,4.28125 C107.245,4.28125 106.76,4.52604 106.406,5.01562 C106.052,5.49479 105.875,6.15104 105.875,6.98438 C105.875,7.83854 106.052,8.51042 106.406,9 C106.76,9.48958 107.245,9.73438 107.859,9.73438 C108.474,9.73438 108.958,9.48958 109.312,9 C109.667,8.5 109.844,7.82812 109.844,6.98438 C109.844,6.16146 109.667,5.50521 109.312,5.01562 M107.859,3.84375 C108.62,3.84375 109.224,4.13021 109.672,4.70312 C110.12,5.27604 110.344,6.03646 110.344,6.98438 C110.344,7.97396 110.12,8.75521 109.672,9.32812 C109.224,9.90104 108.62,10.1875 107.859,10.1875 C107.078,10.1875 106.464,9.90104 106.016,9.32812 C105.578,8.75521 105.359,7.97396 105.359,6.98438 C105.359,6.02604 105.583,5.26302 106.031,4.69531 C106.479,4.1276 107.089,3.84375 107.859,3.84375 M116.781,5.29688 C116.969,4.80729 117.26,4.44271 117.656,4.20312 C118.042,3.96354 118.495,3.84375 119.016,3.84375 C119.536,3.84375 119.953,4.02604 120.266,4.39062 C120.589,4.75521 120.75,5.41667 120.75,6.375 L120.75,10 L120.266,10 L120.266,6.40625 C120.266,5.57292 120.151,5.01042 119.922,4.71875 C119.693,4.42708 119.385,4.28125 119,4.28125 C118.448,4.28125 117.964,4.44792 117.547,4.78125 C117.078,5.15625 116.844,5.76042 116.844,6.59375 L116.844,10 L116.359,10 L116.359,6.40625 C116.359,5.60417 116.247,5.04948 116.023,4.74219 C115.799,4.4349 115.49,4.28125 115.094,4.28125 C114.542,4.28125 114.057,4.45312 113.641,4.79688 C113.172,5.16146 112.938,5.76042 112.938,6.59375 L112.938,10 L112.453,10 L112.453,3.98438 L112.938,3.98438 L112.938,5.10938 C113.115,4.71354 113.391,4.40104 113.766,4.17188 C114.13,3.95312 114.583,3.84375 115.125,3.84375 C115.479,3.84375 115.818,3.95833 116.141,4.1875 C116.391,4.375 116.604,4.74479 116.781,5.29688 M127.516,12.1719 L127.516,12.5938 L121.797,12.5938 L121.797,12.1719 L127.516,12.1719 M132.766,4.28125 L132.766,4.79688 C132.474,4.61979 132.229,4.5 132.031,4.4375 C131.698,4.33333 131.38,4.28125 131.078,4.28125 C130.214,4.28125 129.594,4.5026 129.219,4.94531 C128.844,5.38802 128.656,6.07292 128.656,7 C128.656,7.9375 128.844,8.6276 129.219,9.07031 C129.594,9.51302 130.214,9.73438 131.078,9.73438 C131.37,9.73438 131.651,9.69271 131.922,9.60938 C132.214,9.53646 132.495,9.42188 132.766,9.26562 L132.766,9.76562 C132.495,9.90104 132.214,10 131.922,10.0625 C131.62,10.125 131.323,10.1562 131.031,10.1562 C130.156,10.1562 129.458,9.91667 128.938,9.4375 C128.417,8.95833 128.156,8.14323 128.156,6.99219 C128.156,5.84115 128.417,5.02604 128.938,4.54688 C129.458,4.07812 130.156,3.84375 131.031,3.84375 C131.323,3.84375 131.63,3.88542 131.953,3.96875 C132.276,4.04167 132.547,4.14583 132.766,4.28125 M138.281,5.01562 C137.927,4.52604 137.443,4.28125 136.828,4.28125 C136.214,4.28125 135.729,4.52604 135.375,5.01562 C135.021,5.49479 134.844,6.15104 134.844,6.98438 C134.844,7.83854 135.021,8.51042 135.375,9 C135.729,9.48958 136.214,9.73438 136.828,9.73438 C137.443,9.73438 137.927,9.48958 138.281,9 C138.635,8.5 138.812,7.82812 138.812,6.98438 C138.812,6.16146 138.635,5.50521 138.281,5.01562 M136.828,3.84375 C137.589,3.84375 138.193,4.13021 138.641,4.70312 C139.089,5.27604 139.312,6.03646 139.312,6.98438 C139.312,7.97396 139.089,8.75521 138.641,9.32812 C138.193,9.90104 137.589,10.1875 136.828,10.1875 C136.047,10.1875 135.432,9.90104 134.984,9.32812 C134.547,8.75521 134.328,7.97396 134.328,6.98438 C134.328,6.02604 134.552,5.26302 135,4.69531 C135.448,4.1276 136.057,3.84375 136.828,3.84375 M145.75,5.29688 C145.938,4.80729 146.229,4.44271 146.625,4.20312 C147.01,3.96354 147.464,3.84375 147.984,3.84375 C148.505,3.84375 148.922,4.02604 149.234,4.39062 C149.557,4.75521 149.719,5.41667 149.719,6.375 L149.719,10 L149.234,10 L149.234,6.40625 C149.234,5.57292 149.12,5.01042 148.891,4.71875 C148.661,4.42708 148.354,4.28125 147.969,4.28125 C147.417,4.28125 146.932,4.44792 146.516,4.78125 C146.047,5.15625 145.812,5.76042 145.812,6.59375 L145.812,10 L145.328,10 L145.328,6.40625 C145.328,5.60417 145.216,5.04948 144.992,4.74219 C144.768,4.4349 144.458,4.28125 144.062,4.28125 C143.51,4.28125 143.026,4.45312 142.609,4.79688 C142.141,5.16146 141.906,5.76042 141.906,6.59375 L141.906,10 L141.422,10 L141.422,3.98438 L141.906,3.98438 L141.906,5.10938 C142.083,4.71354 142.359,4.40104 142.734,4.17188 C143.099,3.95312 143.552,3.84375 144.094,3.84375 C144.448,3.84375 144.786,3.95833 145.109,4.1875 C145.359,4.375 145.573,4.74479 145.75,5.29688 M155.844,9.09375 C156.26,8.67708 156.469,7.97917 156.469,7 C156.469,6.02083 156.26,5.32292 155.844,4.90625 C155.427,4.48958 154.99,4.28125 154.531,4.28125 C154.083,4.28125 153.651,4.48958 153.234,4.90625 C152.828,5.32292 152.625,6.02083 152.625,7 C152.625,7.97917 152.828,8.67708 153.234,9.09375 C153.651,9.51042 154.083,9.71875 154.531,9.71875 C154.99,9.71875 155.427,9.51042 155.844,9.09375 M152.609,5.35938 C152.839,4.83854 153.083,4.47917 153.344,4.28125 C153.75,3.98958 154.135,3.84375 154.5,3.84375 C155.208,3.84375 155.799,4.13281 156.273,4.71094 C156.747,5.28906 156.984,6.05208 156.984,7 C156.984,7.94792 156.747,8.71094 156.273,9.28906 C155.799,9.86719 155.208,10.1562 154.5,10.1562 C154.135,10.1562 153.75,10.0052 153.344,9.70312 C153.083,9.51562 152.839,9.16146 152.609,8.64062 L152.609,10 L152.125,10 L152.125,1.64062 L152.609,1.64062 L152.609,5.35938 M159.078,3.98438 L159.578,3.98438 L159.578,10 L159.078,10 L159.078,3.98438 M159.078,1.64062 L159.578,1.64062 L159.578,2.3125 L159.078,2.3125 L159.078,1.64062 M166.688,6.375 L166.688,10 L166.188,10 L166.188,6.40625 C166.188,5.625 166.062,5.07552 165.812,4.75781 C165.562,4.4401 165.193,4.28125 164.703,4.28125 C164.13,4.28125 163.646,4.45312 163.25,4.79688 C162.833,5.14062 162.625,5.73958 162.625,6.59375 L162.625,10 L162.141,10 L162.141,3.98438 L162.625,3.98438 L162.625,5.10938 C162.802,4.74479 163.036,4.46875 163.328,4.28125 C163.745,3.98958 164.208,3.84375 164.719,3.84375 C165.323,3.84375 165.802,4.04688 166.156,4.45312 C166.51,4.84896 166.688,5.48958 166.688,6.375 M173.797,6.75 L173.797,7.0625 L169.234,7.0625 C169.234,8.02083 169.422,8.69792 169.797,9.09375 C170.214,9.52083 170.828,9.73438 171.641,9.73438 C171.859,9.73438 172.146,9.6875 172.5,9.59375 C172.854,9.5 173.208,9.35938 173.562,9.17188 L173.562,9.6875 C173.208,9.84375 172.846,9.96094 172.477,10.0391 C172.107,10.1172 171.812,10.1562 171.594,10.1562 C170.667,10.1562 169.969,9.90625 169.5,9.40625 C168.99,8.875 168.734,8.09375 168.734,7.0625 C168.734,5.98958 168.964,5.1875 169.422,4.65625 C169.901,4.11458 170.568,3.84375 171.422,3.84375 C172.203,3.84375 172.797,4.10417 173.203,4.625 C173.599,5.16667 173.797,5.875 173.797,6.75 M173.297,6.64062 C173.297,5.79688 173.104,5.18229 172.719,4.79688 C172.406,4.45312 171.974,4.28125 171.422,4.28125 C170.828,4.28125 170.328,4.45833 169.922,4.8125 C169.547,5.14583 169.323,5.75521 169.25,6.64062 L173.297,6.64062 M179.875,5.35938 L179.875,1.64062 L180.344,1.64062 L180.344,10 L179.875,10 L179.875,8.64062 C179.646,9.16146 179.396,9.51562 179.125,9.70312 C178.729,10.0052 178.349,10.1562 177.984,10.1562 C177.276,10.1562 176.685,9.86719 176.211,9.28906 C175.737,8.71094 175.5,7.94792 175.5,7 C175.5,6.05208 175.737,5.28906 176.211,4.71094 C176.685,4.13281 177.276,3.84375 177.984,3.84375 C178.349,3.84375 178.729,3.98958 179.125,4.28125 C179.396,4.47917 179.646,4.83854 179.875,5.35938 M176.641,4.90625 C176.224,5.32292 176.016,6.02083 176.016,7 C176.016,7.97917 176.224,8.67708 176.641,9.09375 C177.057,9.51042 177.495,9.71875 177.953,9.71875 C178.401,9.71875 178.833,9.51042 179.25,9.09375 C179.656,8.67708 179.859,7.97917 179.859,7 C179.859,6.02083 179.656,5.32292 179.25,4.90625 C178.833,4.48958 178.401,4.28125 177.953,4.28125 C177.495,4.28125 177.057,4.48958 176.641,4.90625 "/>
</g>

<g fill="none" stroke="#000000" stroke-opacity="1" stroke-width="1" stroke-linecap="square" stroke-linejoin="bevel" transform="matrix(2,0,0,2,609.363,72)"
font-family="sans" font-size="11" font-weight="100" font-style="normal" 
>
</g>

<g fill="none" stroke="#000000" stroke-opacity="1" stroke-width="1" stroke-linecap="square" stroke-linejoin="bevel" transform="matrix(2,0,0,2,609.363,72)"
font-family="Ubuntu" font-size="11" font-weight="400" font-style="normal" 
>
</g>

<g fill="none" stroke="#000000" stroke-opacity="1" stroke-width="1" stroke-linecap="square" stroke-linejoin="bevel" transform="matrix(2,0,0,2,-0.0032,190)"
font-family="Ubuntu" font-size="11" font-weight="400" font-style="normal" 
>
</g>

<g fill="#000000" fill-opacity="1" stroke="#000000" stroke-opacity="1" stroke-width="1" stroke-linecap="square" stroke-linejoin="round" transform="matrix(2,0,0,2,-0.0032,190)"
font-family="Ubuntu" font-size="11" font-weight="400" font-style="normal" 
>
<path vector-effect="none" fill-rule="evenodd" d="M485.1,-45 L485.1,-41.479 L495.16,-45 L485.1,-48.521 L485.1,-45"/>
</g>

<g fill="none" stroke="#000000" stroke-opacity="1" stroke-width="1" stroke-linecap="square" stroke-linejoin="bevel" transform="matrix(2,0,0,2,-0.0032,190)"
font-family="Ubuntu" font-size="11" font-weight="400" font-style="normal" 
>
</g>

<g fill="none" stroke="#000000" stroke-opacity="1" stroke-width="1" stroke-linecap="square" stroke-linejoin="bevel" transform="matrix(2,0,0,2,-0.0032,190)"
font-family="Ubuntu" font-size="11" font-weight="400" font-style="normal" 
>
</g>

<g fill="none" stroke="#000000" stroke-opacity="1" stroke-width="1" stroke-linecap="square" stroke-linejoin="bevel" transform="matrix(2,0,0,2,-0.0032,190)"
font-family="Ubuntu" font-size="11" font-weight="400" font-style="normal" 
>
</g>

<g fill="none" stroke="#000000" stroke-opacity="1" stroke-width="1" stroke-linecap="square" stroke-linejoin="bevel" transform="matrix(2,0,0,2,-0.0032,190)"
font-family="Ubuntu" font-size="11" font-weight="400" font-style="normal" 
>
</g>

<g fill="none" stroke="#000000" stroke-opacity="1" stroke-width="1" stroke-linecap="square" stroke-linejoin="round" transform="matrix(2,0,0,2,-0.0032,190)"
font-family="Ubuntu" font-size="11" font-weight="400" font-style="normal" 
>
<path vector-effect="none" fill-rule="evenodd" d="M98.302,-23.334 C116.02,-26.319 138.8,-30.158 160.25,-33.772 "/>
</g>

<g fill="none" stroke="#000000" stroke-opacity="1" stroke-width="1" stroke-linecap="square" stroke-linejoin="bevel" transform="matrix(2,0,0,2,-0.0032,190)"
font-family="Ubuntu" font-size="11" font-weight="400" font-style="normal" 
>
</g>

<g fill="none" stroke="#000000" stroke-opacity="1" stroke-width="1" stroke-linecap="square" stroke-linejoin="bevel" transform="matrix(2,0,0,2,279.702,98)"
font-family="Ubuntu" font-size="11" font-weight="400" font-style="normal" 
>
</g>

<g fill="none" stroke="#000000" stroke-opacity="1" stroke-width="1" stroke-linecap="square" stroke-linejoin="bevel" transform="matrix(2,0,0,2,279.702,98)"
font-family="sans" font-size="11" font-weight="100" font-style="normal" 
>
</g>

<g fill="#000000" fill-opacity="1" stroke="#000000" stroke-opacity="1" stroke-width="1" stroke-linecap="square" stroke-linejoin="round" transform="matrix(2,0,0,2,279.702,98)"
font-family="sans" font-size="11" font-weight="100" font-style="normal" 
>
<path vector-effect="none" fill-rule="nonzero" d="M2.96875,1.98438 L3.53125,1.98438 L0.734375,11.0156 L0.171875,11.0156 L2.96875,1.98438 M5.46875,2.28125 L5.46875,3.98438 L7.5,3.98438 L7.5,4.40625 L5.46875,4.40625 L5.46875,8.01562 C5.46875,8.47396 5.52604,8.79688 5.64062,8.98438 C5.89062,9.38021 6.25,9.57812 6.71875,9.57812 L7.5,9.57812 L7.5,10 L6.73438,10 C6.24479,10 5.82812,9.85677 5.48438,9.57031 C5.14062,9.28385 4.96875,8.76562 4.96875,8.01562 L4.96875,4.40625 L4.25,4.40625 L4.25,3.98438 L4.96875,3.98438 L4.96875,2.28125 L5.46875,2.28125 M11.8438,1.64062 L11.8438,2.0625 L11.1562,2.0625 C10.7917,2.0625 10.5104,2.15625 10.3125,2.34375 C10.0729,2.57292 9.95312,2.94271 9.95312,3.45312 L9.95312,3.98438 L11.5781,3.98438 L11.5781,4.40625 L9.95312,4.40625 L9.95312,10 L9.45312,10 L9.45312,4.40625 L8.51562,4.40625 L8.51562,3.98438 L9.45312,3.98438 L9.45312,3.5625 C9.45312,2.89583 9.60938,2.41146 9.92188,2.10938 C10.224,1.79688 10.6354,1.64062 11.1562,1.64062 L11.8438,1.64062"/>
</g>

<g fill="none" stroke="#000000" stroke-opacity="1" stroke-width="1" stroke-linecap="square" stroke-linejoin="bevel" transform="matrix(2,0,0,2,279.702,98)"
font-family="sans" font-size="11" font-weight="100" font-style="normal" 
>
</g>

<g fill="none" stroke="#000000" stroke-opacity="1" stroke-width="1" stroke-linecap="square" stroke-linejoin="bevel" transform="matrix(2,0,0,2,279.702,98)"
font-family="Ubuntu" font-size="11" font-weight="400" font-style="normal" 
>
</g>

<g fill="none" stroke="#000000" stroke-opacity="1" stroke-width="1" stroke-linecap="square" stroke-linejoin="bevel" transform="matrix(2,0,0,2,-0.0032,190)"
font-family="Ubuntu" font-size="11" font-weight="400" font-style="normal" 
>
</g>

<g fill="#000000" fill-opacity="1" stroke="#000000" stroke-opacity="1" stroke-width="1" stroke-linecap="square" stroke-linejoin="round" transform="matrix(2,0,0,2,-0.0032,190)"
font-family="Ubuntu" font-size="11" font-weight="400" font-style="normal" 
>
<path vector-effect="none" fill-rule="evenodd" d="M160.25,-33.772 L160.844,-30.2475 L170.32,-35.469 L159.656,-37.2965 L160.25,-33.772"/>
</g>

<g fill="none" stroke="#000000" stroke-opacity="1" stroke-width="1" stroke-linecap="square" stroke-linejoin="bevel" transform="matrix(2,0,0,2,-0.0032,190)"
font-family="Ubuntu" font-size="11" font-weight="400" font-style="normal" 
>
</g>

<g fill="none" stroke="#000000" stroke-opacity="1" stroke-width="1" stroke-linecap="square" stroke-linejoin="bevel" transform="matrix(2,0,0,2,-0.0032,190)"
font-family="Ubuntu" font-size="11" font-weight="400" font-style="normal" 
>
</g>

<g fill="none" stroke="#000000" stroke-opacity="1" stroke-width="1" stroke-linecap="square" stroke-linejoin="bevel" transform="matrix(2,0,0,2,-0.0032,190)"
font-family="Ubuntu" font-size="11" font-weight="400" font-style="normal" 
>
</g>

<g fill="none" stroke="#000000" stroke-opacity="1" stroke-width="1" stroke-linecap="square" stroke-linejoin="bevel" transform="matrix(2,0,0,2,-0.0032,190)"
font-family="Ubuntu" font-size="11" font-weight="400" font-style="normal" 
>
</g>

<g fill="none" stroke="#000000" stroke-opacity="1" stroke-width="1" stroke-linecap="square" stroke-linejoin="round" transform="matrix(2,0,0,2,-0.0032,190)"
font-family="Ubuntu" font-size="11" font-weight="400" font-style="normal" 
>
<path vector-effect="none" fill-rule="evenodd" d="M213.14,-62.782 C210.64,-72.315 215.55,-81 227.88,-81 C235.4,-81 240.16,-77.775 242.16,-73.098 "/>
</g>

<g fill="none" stroke="#000000" stroke-opacity="1" stroke-width="1" stroke-linecap="square" stroke-linejoin="bevel" transform="matrix(2,0,0,2,-0.0032,190)"
font-family="Ubuntu" font-size="11" font-weight="400" font-style="normal" 
>
</g>

<g fill="none" stroke="#000000" stroke-opacity="1" stroke-width="1" stroke-linecap="square" stroke-linejoin="bevel" transform="matrix(2,0,0,2,443.882,0)"
font-family="Ubuntu" font-size="11" font-weight="400" font-style="normal" 
>
</g>

<g fill="none" stroke="#000000" stroke-opacity="1" stroke-width="1" stroke-linecap="square" stroke-linejoin="bevel" transform="matrix(2,0,0,2,443.882,0)"
font-family="sans" font-size="11" font-weight="100" font-style="normal" 
>
</g>

<g fill="#000000" fill-opacity="1" stroke="#000000" stroke-opacity="1" stroke-width="1" stroke-linecap="square" stroke-linejoin="round" transform="matrix(2,0,0,2,443.882,0)"
font-family="sans" font-size="11" font-weight="100" font-style="normal" 
>
<path vector-effect="none" fill-rule="nonzero" d="M2.96875,1.98438 L3.53125,1.98438 L0.734375,11.0156 L0.171875,11.0156 L2.96875,1.98438 M5.46875,2.28125 L5.46875,3.98438 L7.5,3.98438 L7.5,4.40625 L5.46875,4.40625 L5.46875,8.01562 C5.46875,8.47396 5.52604,8.79688 5.64062,8.98438 C5.89062,9.38021 6.25,9.57812 6.71875,9.57812 L7.5,9.57812 L7.5,10 L6.73438,10 C6.24479,10 5.82812,9.85677 5.48438,9.57031 C5.14062,9.28385 4.96875,8.76562 4.96875,8.01562 L4.96875,4.40625 L4.25,4.40625 L4.25,3.98438 L4.96875,3.98438 L4.96875,2.28125 L5.46875,2.28125 M11.8438,1.64062 L11.8438,2.0625 L11.1562,2.0625 C10.7917,2.0625 10.5104,2.15625 10.3125,2.34375 C10.0729,2.57292 9.95312,2.94271 9.95312,3.45312 L9.95312,3.98438 L11.5781,3.98438 L11.5781,4.40625 L9.95312,4.40625 L9.95312,10 L9.45312,10 L9.45312,4.40625 L8.51562,4.40625 L8.51562,3.98438 L9.45312,3.98438 L9.45312,3.5625 C9.45312,2.89583 9.60938,2.41146 9.92188,2.10938 C10.224,1.79688 10.6354,1.64062 11.1562,1.64062 L11.8438,1.64062"/>
</g>

<g fill="none" stroke="#000000" stroke-opacity="1" stroke-width="1" stroke-linecap="square" stroke-linejoin="bevel" transform="matrix(2,0,0,2,443.882,0)"
font-family="sans" font-size="11" font-weight="100" font-style="normal" 
>
</g>

<g fill="none" stroke="#000000" stroke-opacity="1" stroke-width="1" stroke-linecap="square" stroke-linejoin="bevel" transform="matrix(2,0,0,2,443.882,0)"
font-family="Ubuntu" font-size="11" font-weight="400" font-style="normal" 
>
</g>

<g fill="none" stroke="#000000" stroke-opacity="1" stroke-width="1" stroke-linecap="square" stroke-linejoin="bevel" transform="matrix(2,0,0,2,-0.0032,190)"
font-family="Ubuntu" font-size="11" font-weight="400" font-style="normal" 
>
</g>

<g fill="#000000" fill-opacity="1" stroke="#000000" stroke-opacity="1" stroke-width="1" stroke-linecap="square" stroke-linejoin="round" transform="matrix(2,0,0,2,-0.0032,190)"
font-family="Ubuntu" font-size="11" font-weight="400" font-style="normal" 
>
<path vector-effect="none" fill-rule="evenodd" d="M242.16,-73.098 L238.549,-72.937 L242.62,-62.782 L245.771,-73.259 L242.16,-73.098"/>
</g>

<g fill="none" stroke="#000000" stroke-opacity="1" stroke-width="1" stroke-linecap="square" stroke-linejoin="bevel" transform="matrix(2,0,0,2,-0.0032,190)"
font-family="Ubuntu" font-size="11" font-weight="400" font-style="normal" 
>
</g>

<g fill="none" stroke="#000000" stroke-opacity="1" stroke-width="1" stroke-linecap="square" stroke-linejoin="bevel" transform="matrix(2,0,0,2,-0.0032,190)"
font-family="Ubuntu" font-size="11" font-weight="400" font-style="normal" 
>
</g>

<g fill="none" stroke="#000000" stroke-opacity="1" stroke-width="1" stroke-linecap="square" stroke-linejoin="bevel" transform="matrix(2,0,0,2,-0.0032,190)"
font-family="Ubuntu" font-size="11" font-weight="400" font-style="normal" 
>
</g>

<g fill="none" stroke="#000000" stroke-opacity="1" stroke-width="1" stroke-linecap="square" stroke-linejoin="bevel" transform="matrix(2,0,0,2,-0.0032,190)"
font-family="Ubuntu" font-size="11" font-weight="400" font-style="normal" 
>
</g>

<g fill="none" stroke="#000000" stroke-opacity="1" stroke-width="1" stroke-linecap="square" stroke-linejoin="round" transform="matrix(2,0,0,2,-0.0032,190)"
font-family="Ubuntu" font-size="11" font-weight="400" font-style="normal" 
>
<path vector-effect="none" fill-rule="evenodd" d="M122.24,-62.632 C134.51,-60.565 147.62,-58.355 160.28,-56.223 "/>
</g>

<g fill="none" stroke="#000000" stroke-opacity="1" stroke-width="1" stroke-linecap="square" stroke-linejoin="bevel" transform="matrix(2,0,0,2,-0.0032,190)"
font-family="Ubuntu" font-size="11" font-weight="400" font-style="normal" 
>
</g>

<g fill="none" stroke="#000000" stroke-opacity="1" stroke-width="1" stroke-linecap="square" stroke-linejoin="bevel" transform="matrix(2,0,0,2,279.702,44)"
font-family="Ubuntu" font-size="11" font-weight="400" font-style="normal" 
>
</g>

<g fill="none" stroke="#000000" stroke-opacity="1" stroke-width="1" stroke-linecap="square" stroke-linejoin="bevel" transform="matrix(2,0,0,2,279.702,44)"
font-family="sans" font-size="11" font-weight="100" font-style="normal" 
>
</g>

<g fill="#000000" fill-opacity="1" stroke="#000000" stroke-opacity="1" stroke-width="1" stroke-linecap="square" stroke-linejoin="round" transform="matrix(2,0,0,2,279.702,44)"
font-family="sans" font-size="11" font-weight="100" font-style="normal" 
>
<path vector-effect="none" fill-rule="nonzero" d="M2.96875,1.98438 L3.53125,1.98438 L0.734375,11.0156 L0.171875,11.0156 L2.96875,1.98438 M5.46875,2.28125 L5.46875,3.98438 L7.5,3.98438 L7.5,4.40625 L5.46875,4.40625 L5.46875,8.01562 C5.46875,8.47396 5.52604,8.79688 5.64062,8.98438 C5.89062,9.38021 6.25,9.57812 6.71875,9.57812 L7.5,9.57812 L7.5,10 L6.73438,10 C6.24479,10 5.82812,9.85677 5.48438,9.57031 C5.14062,9.28385 4.96875,8.76562 4.96875,8.01562 L4.96875,4.40625 L4.25,4.40625 L4.25,3.98438 L4.96875,3.98438 L4.96875,2.28125 L5.46875,2.28125 M11.8438,1.64062 L11.8438,2.0625 L11.1562,2.0625 C10.7917,2.0625 10.5104,2.15625 10.3125,2.34375 C10.0729,2.57292 9.95312,2.94271 9.95312,3.45312 L9.95312,3.98438 L11.5781,3.98438 L11.5781,4.40625 L9.95312,4.40625 L9.95312,10 L9.45312,10 L9.45312,4.40625 L8.51562,4.40625 L8.51562,3.98438 L9.45312,3.98438 L9.45312,3.5625 C9.45312,2.89583 9.60938,2.41146 9.92188,2.10938 C10.224,1.79688 10.6354,1.64062 11.1562,1.64062 L11.8438,1.64062"/>
</g>

<g fill="none" stroke="#000000" stroke-opacity="1" stroke-width="1" stroke-linecap="square" stroke-linejoin="bevel" transform="matrix(2,0,0,2,279.702,44)"
font-family="sans" font-size="11" font-weight="100" font-style="normal" 
>
</g>

<g fill="none" stroke="#000000" stroke-opacity="1" stroke-width="1" stroke-linecap="square" stroke-linejoin="bevel" transform="matrix(2,0,0,2,279.702,44)"
font-family="Ubuntu" font-size="11" font-weight="400" font-style="normal" 
>
</g>

<g fill="none" stroke="#000000" stroke-opacity="1" stroke-width="1" stroke-linecap="square" stroke-linejoin="bevel" transform="matrix(2,0,0,2,-0.0032,190)"
font-family="Ubuntu" font-size="11" font-weight="400" font-style="normal" 
>
</g>

<g fill="#000000" fill-opacity="1" stroke="#000000" stroke-opacity="1" stroke-width="1" stroke-linecap="square" stroke-linejoin="round" transform="matrix(2,0,0,2,-0.0032,190)"
font-family="Ubuntu" font-size="11" font-weight="400" font-style="normal" 
>
<path vector-effect="none" fill-rule="evenodd" d="M160.28,-56.223 L159.689,-52.716 L170.3,-54.534 L160.871,-59.73 L160.28,-56.223"/>
</g>

<g fill="none" stroke="#000000" stroke-opacity="1" stroke-width="1" stroke-linecap="square" stroke-linejoin="bevel" transform="matrix(2,0,0,2,-0.0032,190)"
font-family="Ubuntu" font-size="11" font-weight="400" font-style="normal" 
>
</g>

<g fill="none" stroke="#000000" stroke-opacity="1" stroke-width="1" stroke-linecap="square" stroke-linejoin="bevel" transform="matrix(1,0,0,1,0,0)"
font-family="Ubuntu" font-size="11" font-weight="400" font-style="normal" 
>
</g>
</g>
</svg>
